# xmcd
#
# Track frame offsets:
#	150
#	16787
#	30963
#	46995
#	67453
#	85344
#	106122
#	119474
#
# Disc length: 1800 seconds
#
# Revision: 0
# Processed by: cddbd v1.4PL0 Copyright (c) Steve Scherf et al.
# Submitted via: EasyCDDAExtractor 5.0.0.0
#
DISCID=5f070608
DTITLE=Highway 70 - Under The Covers
DYEAR=2003
DGENRE=Country
TTITLE0=Piece Of My Heart
TTITLE1=Pour Me
TTITLE2=Lights Out
TTITLE3=Sometimes Love Ain't Enough
TTITLE4=Let The Heartache Ride
TTITLE5=If Your Not In It For Love
TTITLE6=I'm A Believer
TTITLE7=Rock 'n' Roll
EXTD=
EXTT0=
EXTT1=
EXTT2=
EXTT3=
EXTT4=
EXTT5=
EXTT6=
EXTT7=
PLAYORDER=
